<svg width="124" height="42" xmlns="http://www.w3.org/2000/svg"><title>google play</title><defs><linearGradient x1="50%" y1="0%" x2="50%" y2="100%" id="a"><stop stop-color="#1E79AF" offset="0%"/><stop stop-color="#63FFD3" offset="100%"/></linearGradient><linearGradient x1="84.718%" y1="14.446%" x2="5.244%" y2="96.562%" id="b"><stop stop-color="#DC4057" offset="0%"/><stop stop-color="#9E36BB" offset="100%"/></linearGradient><linearGradient x1="50%" y1="0%" x2="50%" y2="97.826%" id="c"><stop stop-color="#FF9676" offset="0%"/><stop stop-color="#FFD074" offset="100%"/></linearGradient><linearGradient x1="17.444%" y1="0%" y2="100%" id="d"><stop stop-color="#51C6AD" offset="0%"/><stop stop-color="#D5FFA1" offset="100%"/></linearGradient></defs><g fill="none" fill-rule="evenodd"><g><g><rect fill="#393939" width="124" height="42" rx="4"/><g><path d="M.774-.126C.426-.016.2.34.2.878l.002 16.953c0 .533.219.883.558 1l9.407-9.486L.774-.126" fill="url(#a)" transform="translate(9.25 17.261)"/><path d="M.76 18.831c.244.084.55.045.883-.14l11.479-6.366-2.955-2.98L.76 18.831" fill="url(#b)" transform="translate(9.25 17.261)"/><path d="M13.124 12.325l3.914-2.17c.793-.442.793-1.16 0-1.6l-3.929-2.18-2.942 2.968 2.957 2.982" fill="url(#c)" transform="translate(9.25 17.261)"/><path d="M13.109 6.376L1.643.018c-.325-.179-.625-.22-.868-.144l9.392 9.47 2.942-2.968" fill="url(#d)" transform="translate(9.25 17.261)"/></g><path d="M42.904 30.754l-2.431.561c-.985.157-1.87.294-2.806.294-4.69 0-6.476-3.48-6.476-6.204 0-3.327 2.532-6.412 6.867-6.412.917 0 1.8.136 2.604.357 1.274.361 1.87.806 2.242 1.067l-1.412 1.352-.596.135.425-.682c-.575-.567-1.632-1.612-3.638-1.612-2.682 0-4.705 2.056-4.705 5.058 0 3.223 2.31 6.256 6.015 6.256 1.089 0 1.65-.22 2.158-.427v-2.763l-2.567.139 1.36-.737h3.603l-.44.427c-.12.102-.135.137-.169.274-.017.156-.034.652-.034.826v2.09zm5.575.634c-2.883 0-4.422-2.263-4.422-4.313 0-2.394 1.939-4.443 4.696-4.443 2.664 0 4.332 2.104 4.332 4.314 0 2.159-1.648 4.442-4.606 4.442zm2.268-1.48c.436-.585.544-1.315.544-2.027 0-1.61-.763-4.682-3.01-4.682-.6 0-1.196.236-1.631.62-.71.64-.835 1.445-.835 2.234 0 1.806.89 4.786 3.083 4.786.708 0 1.43-.346 1.85-.93zm7.383 1.48c-2.883 0-4.425-2.263-4.425-4.313 0-2.394 1.939-4.443 4.697-4.443 2.665 0 4.335 2.104 4.335 4.314 0 2.159-1.65 4.442-4.607 4.442zm2.267-1.48c.439-.585.545-1.315.545-2.027 0-1.61-.76-4.682-3.01-4.682-.598 0-1.2.236-1.634.62-.708.64-.835 1.445-.835 2.234 0 1.806.886 4.786 3.084 4.786.709 0 1.433-.346 1.85-.93zm8.975-6.379c.417.345 1.286 1.078 1.286 2.467 0 1.354-.757 1.993-1.521 2.597-.234.238-.508.496-.508.895 0 .404.274.624.471.788l.655.51c.796.677 1.522 1.299 1.522 2.562 0 1.72-1.65 3.454-4.77 3.454-2.628 0-3.898-1.262-3.898-2.615 0-.658.325-1.591 1.398-2.23 1.124-.693 2.647-.786 3.463-.84-.255-.331-.546-.679-.546-1.246 0-.31.093-.494.182-.712a6.287 6.287 0 0 1-.58.038c-1.923 0-3.01-1.447-3.01-2.872 0-.841.38-1.775 1.161-2.45 1.034-.86 2.267-1.007 3.247-1.007h3.736l-1.161.661h-1.127zm-1.284 8.118c-.15-.02-.238-.02-.418-.02-.164 0-1.144.036-1.903.293-.401.148-1.561.586-1.561 1.884 0 1.297 1.252 2.231 3.19 2.231 1.741 0 2.665-.841 2.665-1.974 0-.933-.598-1.425-1.973-2.414zm.52-3.474c.42-.423.456-1.006.456-1.337 0-1.315-.777-3.363-2.284-3.363-.47 0-.98.238-1.27.606-.306.38-.398.875-.398 1.35 0 1.225.708 3.256 2.266 3.256.455 0 .944-.223 1.23-.512zm5.72 1.61c0 .71.126.82.722.876.31.037.62.053.927.09l-.671.403H72.11c.42-.549.491-.603.491-.969v-.408l-.007-10.872h-1.41l1.358-.66h2.593c-.562.328-.73.528-.802 1.168l-.005 10.371zm8.914.14l-.868.826c-.2.111-.4.24-.598.332-.603.276-1.215.345-1.76.345-.579 0-1.487-.038-2.413-.714-1.287-.914-1.85-2.485-1.85-3.855 0-2.835 2.289-4.225 4.155-4.225.653 0 1.323.164 1.868.512.906.604 1.14 1.39 1.27 1.81l-4.263 1.736-1.396.11c.452 2.325 2.012 3.677 3.735 3.677.86 0 1.5-.284 2.086-.576 0 0 .118-.062.034.023zM80.67 25.3c.346-.127.526-.236.526-.491 0-.73-.82-1.574-1.797-1.574-.725 0-2.085.569-2.085 2.545 0 .308.037.636.055.965l3.3-1.445zm7.799 4.702v4.658h-.918V22.808h.918v1.35c.597-.873 1.69-1.564 2.957-1.564 2.275 0 3.807 1.74 3.807 4.494 0 2.736-1.532 4.513-3.807 4.513-1.197 0-2.27-.623-2.957-1.599zm5.778-2.914c0-2.076-1.073-3.66-2.975-3.66-1.182 0-2.312.937-2.803 1.754v3.794c.49.818 1.62 1.788 2.803 1.788 1.902 0 2.975-1.597 2.975-3.676zm2.239-7.553h.916v11.852h-.916V19.535zm8.53 11.827c-.062-.298-.108-.56-.142-.78a5.266 5.266 0 0 1-.044-.668c-.314.466-.76.853-1.329 1.158-.57.307-1.11.458-1.852.458-.894 0-1.588-.222-2.083-.671-.493-.45-.741-1.058-.741-1.828s.36-1.393 1.076-1.87c.717-.48 1.643-.719 2.79-.719h2.14v-1.066c0-.614-.208-1.096-.622-1.447-.416-.35-1-.527-1.757-.527-.691 0-1.252.162-1.68.477-.423.322-.636.72-.636 1.201h-.939l-.02-.046c-.033-.648.26-1.216.886-1.707.622-.49 1.437-.737 2.44-.737 1 0 1.81.243 2.42.727.61.48.915 1.173.915 2.079v4.232a5.653 5.653 0 0 0 .235 1.734h-1.057zm-3.255-.675c.779 0 1.339-.175 1.911-.522.569-.346.956-.796 1.158-1.341v-1.647h-2.15c-.82 0-1.5.183-2.035.552-.535.369-.807.815-.807 1.333 0 .49.172.88.514 1.177.343.3.811.448 1.409.448zm5.934 3.206c.196.089.53.143.743.143.561 0 .952-.232 1.303-1.049l.669-1.528-3.614-8.651h1.024l3.1 7.496 3.069-7.496h1.037l-4.407 10.466c-.457 1.078-1.177 1.597-2.165 1.597a3.59 3.59 0 0 1-.916-.124l.157-.854zM31.123 9.763c0-1.84 1.367-3.024 3.068-3.024 1.14 0 1.884.544 2.35 1.21l-.834.482a1.886 1.886 0 0 0-1.516-.78c-1.157 0-2.016.876-2.016 2.112 0 1.218.86 2.112 2.016 2.112.596 0 1.122-.271 1.385-.525v-.903h-1.753v-.903h2.77v2.182a3.158 3.158 0 0 1-2.402 1.07c-1.7 0-3.068-1.2-3.068-3.033zm6.738 2.919V6.835h4.006v.904h-2.98v1.507h2.918v.903h-2.919v1.63h2.98v.903h-4.005zm6.843 0V7.739h-1.77v-.904H47.5v.904h-1.77v4.943h-1.026zm6.36-5.847h1.026v5.847h-1.025V6.835zm3.882 5.847V7.739h-1.77v-.904h4.566v.904h-1.77v4.943h-1.026zm6.106-2.919c0-1.744 1.236-3.024 2.99-3.024 1.743 0 2.988 1.28 2.988 3.024s-1.245 3.024-2.988 3.024c-1.754 0-2.99-1.28-2.99-3.024zm4.927 0c0-1.21-.763-2.112-1.937-2.112-1.184 0-1.938.903-1.938 2.112 0 1.2.754 2.112 1.938 2.112 1.174 0 1.937-.911 1.937-2.112zm6.325 2.919l-3.05-4.181v4.181h-1.026V6.835h1.052l2.989 4.05v-4.05h1.025v5.847h-.99z" fill="#FFF"/></g></g></g></svg>