<svg width="124" height="42" xmlns="http://www.w3.org/2000/svg"><title>apple</title><g fill="none" fill-rule="evenodd"><g><g><rect fill="#393939" width="124" height="42" rx="4"/><path d="M47.942 30.708h-2.107l-1.155-3.63h-4.012l-1.1 3.63h-2.05l3.974-12.356h2.455l3.995 12.356zm-3.61-5.152L43.29 22.33c-.11-.33-.318-1.106-.623-2.328h-.037a89.87 89.87 0 0 1-.586 2.328l-1.026 3.226h3.316zm13.832.588c0 1.515-.409 2.713-1.227 3.592-.733.783-1.643 1.173-2.73 1.173-1.173 0-2.015-.421-2.528-1.264h-.038v4.693h-1.978v-9.606c0-.953-.025-1.93-.073-2.933h1.74l.11 1.412h.037c.66-1.064 1.661-1.595 3.005-1.595 1.05 0 1.927.415 2.628 1.246.704.832 1.054 1.925 1.054 3.282zm-2.015.072c0-.867-.195-1.582-.586-2.144-.428-.587-1.003-.88-1.723-.88-.488 0-.931.163-1.327.485-.397.325-.657.75-.779 1.275a2.593 2.593 0 0 0-.092.603v1.486c0 .648.199 1.195.596 1.641.397.447.913.67 1.548.67.745 0 1.325-.288 1.74-.862.415-.575.623-1.332.623-2.274zm12.256-.072c0 1.515-.409 2.713-1.228 3.592-.732.783-1.643 1.173-2.73 1.173-1.172 0-2.014-.421-2.527-1.264h-.037v4.693h-1.978v-9.606c0-.953-.025-1.93-.073-2.933h1.74l.11 1.412h.037c.659-1.064 1.66-1.595 3.005-1.595 1.049 0 1.926.415 2.63 1.246.7.832 1.051 1.925 1.051 3.282zm-2.015.072c0-.867-.196-1.582-.587-2.144-.428-.587-1-.88-1.722-.88-.489 0-.931.163-1.328.485-.397.325-.656.75-.778 1.275-.06.245-.092.445-.092.603v1.486c0 .648.199 1.195.594 1.641.397.446.913.67 1.55.67.745 0 1.325-.288 1.74-.862.415-.575.623-1.332.623-2.274zm13.465 1.027c0 1.051-.364 1.906-1.096 2.566-.805.722-1.925 1.082-3.364 1.082-1.329 0-2.394-.256-3.2-.77l.458-1.65a5.42 5.42 0 0 0 2.86.79c.745 0 1.325-.17 1.741-.506.415-.336.622-.787.622-1.35 0-.5-.17-.923-.513-1.266-.34-.342-.91-.66-1.704-.955-2.162-.807-3.242-1.989-3.242-3.543 0-1.016.379-1.849 1.137-2.497.755-.649 1.763-.973 3.023-.973 1.124 0 2.057.196 2.802.587l-.494 1.614c-.696-.379-1.483-.568-2.364-.568-.695 0-1.24.171-1.629.513-.33.305-.494.678-.494 1.119 0 .488.188.892.566 1.21.33.293.928.61 1.797.953 1.062.428 1.843.928 2.345 1.502.5.572.75 1.288.75 2.142zm6.54-3.959h-2.18v4.326c0 1.1.385 1.65 1.155 1.65.353 0 .646-.031.878-.092l.055 1.503c-.39.146-.903.219-1.538.219-.782 0-1.392-.239-1.833-.715-.439-.477-.66-1.277-.66-2.402v-4.49h-1.299v-1.486h1.3v-1.631l1.942-.587v2.218h2.18v1.487zm9.84 2.896c0 1.37-.392 2.494-1.174 3.373-.819.905-1.906 1.356-3.262 1.356-1.307 0-2.347-.433-3.122-1.3-.776-.867-1.164-1.962-1.164-3.281 0-1.38.399-2.512 1.2-3.391.799-.88 1.877-1.32 3.233-1.32 1.306 0 2.357.433 3.15 1.301.76.843 1.138 1.93 1.138 3.262zm-2.053.064c0-.822-.176-1.526-.531-2.114-.415-.711-1.008-1.066-1.776-1.066-.795 0-1.4.356-1.814 1.066-.355.589-.53 1.304-.53 2.151 0 .822.175 1.527.53 2.113.428.711 1.025 1.066 1.796 1.066.756 0 1.349-.362 1.776-1.084.365-.6.549-1.311.549-2.132zm8.482-2.704a3.433 3.433 0 0 0-.623-.055c-.696 0-1.234.263-1.613.789-.33.464-.494 1.05-.494 1.76v4.674h-1.978l.019-6.104c0-1.026-.025-1.961-.074-2.804h1.723l.072 1.704h.055c.209-.586.538-1.057.989-1.41a2.38 2.38 0 0 1 1.43-.478c.183 0 .348.013.494.036v1.888zm8.848 2.292c0 .355-.024.653-.073.898h-5.934c.023.88.31 1.553.86 2.017.5.415 1.147.623 1.942.623.878 0 1.68-.14 2.401-.421l.31 1.374c-.843.367-1.837.55-2.985.55-1.38 0-2.464-.406-3.253-1.219-.787-.812-1.181-1.903-1.181-3.272 0-1.343.366-2.462 1.1-3.354.768-.953 1.807-1.429 3.113-1.429 1.283 0 2.255.476 2.915 1.429.522.757.785 1.693.785 2.804zm-1.887-.514c.013-.586-.116-1.093-.384-1.521-.342-.55-.868-.826-1.576-.826-.647 0-1.173.269-1.575.807-.33.428-.525.942-.585 1.54h4.12zM43.678 10.752c0 1.092-.327 1.915-.981 2.467-.606.51-1.467.765-2.583.765-.553 0-1.026-.024-1.422-.072v-5.97a10.49 10.49 0 0 1 1.675-.127c1.062 0 1.863.231 2.403.693.605.523.908 1.27.908 2.244zm-1.025.026c0-.708-.187-1.251-.562-1.63-.375-.378-.923-.567-1.643-.567a4.1 4.1 0 0 0-.784.063v4.539c.12.019.339.027.657.027.744 0 1.319-.207 1.723-.621.405-.414.61-1.018.61-1.81zm6.462.928c0 .673-.192 1.225-.576 1.657-.403.445-.937.667-1.603.667-.642 0-1.153-.213-1.535-.64-.38-.426-.57-.964-.57-1.612 0-.677.196-1.234.589-1.665.393-.432.922-.648 1.589-.648.642 0 1.157.212 1.548.638.371.415.558.95.558 1.603zm-1.009.031c0-.403-.087-.75-.26-1.038-.205-.35-.495-.524-.873-.524-.39 0-.687.175-.891.524-.175.288-.261.64-.261 1.056 0 .404.087.75.26 1.039.211.35.504.524.883.524.371 0 .662-.178.872-.533.18-.295.27-.644.27-1.048zm8.298-2.183l-1.368 4.376h-.891l-.567-1.9a14.23 14.23 0 0 1-.352-1.414h-.017c-.085.48-.202.952-.352 1.414l-.602 1.9h-.901l-1.287-4.376h1l.494 2.08c.12.493.218.961.297 1.405h.017c.073-.366.192-.832.361-1.395l.62-2.09h.793l.595 2.045c.144.499.26.979.35 1.441h.028c.066-.45.165-.93.297-1.44l.53-2.045h.955v-.001zm5.041 4.376h-.972v-2.506c0-.773-.293-1.159-.882-1.159a.877.877 0 0 0-.702.318 1.13 1.13 0 0 0-.27.75v2.596h-.972v-3.125c0-.384-.012-.8-.036-1.252h.855l.045.684h.027c.113-.212.282-.388.504-.528a1.65 1.65 0 0 1 .882-.246c.408 0 .747.132 1.017.396.336.324.504.808.504 1.45v2.622zm1.71-6.384h.972v6.384h-.972V7.546zm6.697 4.16c0 .673-.192 1.225-.576 1.657-.403.445-.937.667-1.603.667-.643 0-1.154-.213-1.534-.64-.38-.426-.571-.964-.571-1.612 0-.677.196-1.234.59-1.665.392-.432.921-.648 1.587-.648.643 0 1.158.212 1.55.638.37.415.557.95.557 1.603zm-1.01.031c0-.403-.087-.75-.26-1.038-.204-.35-.495-.524-.872-.524-.391 0-.688.175-.891.524-.175.288-.261.64-.261 1.056 0 .404.087.75.26 1.039.211.35.504.524.883.524.371 0 .662-.178.871-.533.181-.295.27-.644.27-1.048zm5.716 2.193h-.873l-.072-.504h-.027c-.3.402-.725.604-1.278.604-.413 0-.747-.133-.998-.397a1.243 1.243 0 0 1-.343-.891c0-.535.223-.942.671-1.225.447-.282 1.076-.42 1.886-.414v-.081c0-.577-.302-.865-.908-.865-.431 0-.812.109-1.14.324l-.198-.638c.406-.252.908-.378 1.5-.378 1.144 0 1.717.603 1.717 1.81v1.612c0 .437.021.785.063 1.043zm-1.01-1.504v-.675c-1.072-.018-1.608.276-1.608.882 0 .229.06.4.186.514a.68.68 0 0 0 .475.17.982.982 0 0 0 .595-.202.829.829 0 0 0 .353-.689zm6.536 1.504h-.863l-.046-.702h-.027c-.275.534-.745.802-1.405.802-.527 0-.965-.207-1.313-.621-.348-.414-.522-.952-.522-1.612 0-.708.188-1.282.567-1.72.367-.409.816-.613 1.35-.613.587 0 .998.198 1.232.594h.019V7.546h.973v5.205c0 .426.011.82.035 1.18zm-1.008-1.845v-.73a1.108 1.108 0 0 0-.379-.896.955.955 0 0 0-.65-.239.998.998 0 0 0-.856.433c-.207.289-.311.657-.311 1.108 0 .432.099.783.298 1.053a1 1 0 0 0 .85.432c.32 0 .575-.12.769-.36a1.2 1.2 0 0 0 .279-.801zm9.324-.38c0 .674-.192 1.226-.576 1.658-.403.445-.935.667-1.603.667-.64 0-1.152-.213-1.534-.64-.38-.426-.57-.964-.57-1.612 0-.677.195-1.234.588-1.665.394-.432.923-.648 1.59-.648.64 0 1.158.212 1.547.638.372.415.558.95.558 1.603zm-1.008.032c0-.403-.087-.75-.26-1.038-.205-.35-.495-.524-.873-.524-.39 0-.687.175-.892.524-.175.288-.26.64-.26 1.056 0 .404.086.75.26 1.039.21.35.504.524.882.524.371 0 .664-.178.873-.533.18-.295.27-.644.27-1.048zm6.237 2.193h-.972v-2.506c0-.773-.293-1.159-.882-1.159a.874.874 0 0 0-.702.318c-.18.213-.27.464-.27.75v2.596h-.973v-3.125c0-.384-.011-.8-.034-1.252h.853l.046.684h.027a1.42 1.42 0 0 1 .503-.528c.265-.163.56-.246.883-.246.407 0 .747.132 1.017.396.337.324.504.808.504 1.45v2.622zm6.544-3.647h-1.07v2.126c0 .54.19.81.566.81.175 0 .32-.015.433-.045l.026.738c-.193.072-.445.108-.756.108-.384 0-.683-.116-.899-.35-.217-.234-.325-.628-.325-1.18v-2.207h-.639v-.73h.64v-.801l.952-.288v1.089h1.071v.73h.001zm5.148 3.647h-.974v-2.488c0-.784-.293-1.177-.88-1.177-.451 0-.76.227-.928.682a1.223 1.223 0 0 0-.045.35v2.632h-.972V7.546h.972v2.637h.018c.306-.48.745-.72 1.314-.72.403 0 .736.133 1 .397.33.33.495.82.495 1.468v2.602zm5.31-2.395c0 .175-.013.321-.036.441h-2.916c.013.433.152.762.422.99.247.205.565.307.955.307a3.22 3.22 0 0 0 1.179-.207l.152.676c-.415.18-.903.27-1.468.27-.677 0-1.21-.2-1.597-.599-.388-.399-.58-.935-.58-1.607 0-.66.18-1.21.54-1.648.377-.468.886-.702 1.53-.702.629 0 1.106.234 1.43.702.26.372.39.831.39 1.377zm-.928-.252a1.31 1.31 0 0 0-.188-.747c-.17-.27-.426-.406-.774-.406a.923.923 0 0 0-.774.397c-.161.21-.257.462-.288.756h2.024zm-83.846 8.929c-.027-3.016 2.47-4.484 2.584-4.552-1.414-2.062-3.605-2.343-4.376-2.366-1.84-.193-3.626 1.102-4.564 1.102-.956 0-2.4-1.083-3.956-1.051-2.003.03-3.876 1.19-4.904 2.99-2.12 3.672-.539 9.067 1.493 12.034 1.016 1.453 2.204 3.076 3.758 3.019 1.52-.063 2.089-.97 3.924-.97 1.818 0 2.352.97 3.937.934 1.632-.027 2.66-1.46 3.64-2.927 1.174-1.665 1.646-3.306 1.665-3.39-.039-.013-3.17-1.208-3.2-4.823zm-2.994-8.87c.818-1.023 1.377-2.414 1.222-3.826-1.184.052-2.664.819-3.517 1.819-.754.882-1.428 2.326-1.254 3.685 1.33.1 2.695-.67 3.549-1.678z" fill="#FFF"/></g></g></g></svg>